<svg width="16" height="8" viewBox="0 0 16 8" fill="none" xmlns="http://www.w3.org/2000/svg">
<path d="M8 6.63277L1.02242 0.166092C0.966194 0.112851 0.899435 0.0707595 0.826012 0.0422533C0.752589 0.0137471 0.673959 -0.00060763 0.594673 1.97089e-05C0.515386 0.000647048 0.437018 0.0162436 0.364102 0.0459077C0.291186 0.0755718 0.225172 0.118714 0.169877 0.172838C0.114583 0.226962 0.0711079 0.290992 0.0419673 0.361224C0.0128267 0.431456 -0.00140064 0.506495 0.000108658 0.581998C0.00161796 0.657502 0.0188339 0.73197 0.0507603 0.801095C0.0826866 0.870219 0.128689 0.932627 0.186106 0.984707L7.58184 7.83823C7.69379 7.94196 7.84381 8 8 8C8.15619 8 8.30621 7.94196 8.41816 7.83823L15.8139 0.984707C15.8713 0.932627 15.9173 0.870219 15.9492 0.801095C15.9812 0.73197 15.9984 0.657502 15.9999 0.581998C16.0014 0.506495 15.9872 0.431456 15.958 0.361224C15.9289 0.290992 15.8854 0.226962 15.8301 0.172838C15.7748 0.118714 15.7088 0.0755718 15.6359 0.0459077C15.563 0.0162436 15.4846 0.000647048 15.4053 1.97089e-05C15.326 -0.00060763 15.2474 0.0137471 15.174 0.0422533C15.1006 0.0707595 15.0338 0.112851 14.9776 0.166092L8 6.63277Z" fill="black"/>
</svg>
