<svg width="95" height="67" viewBox="0 0 95 67" fill="none" xmlns="http://www.w3.org/2000/svg">
<path d="M44.674 1.89752C44.4435 1.89752 44.1217 2.03083 43.9587 2.19346L42.7668 3.38604C42.6038 3.54901 42.6587 3.68196 42.8895 3.68196H44.5284C44.7592 3.68196 44.9474 3.8705 44.9474 4.10063V8.41684C44.9474 8.64731 44.7592 8.8355 44.5284 8.8355H40.2125C39.9817 8.8355 39.7939 8.64731 39.7939 8.41684V6.77729C39.7939 6.5475 39.6602 6.49193 39.4979 6.6549L38.3054 7.8468C38.1431 8.00976 38.0098 8.2999 38.0098 8.4915C38.0098 8.68379 38.1431 8.97358 38.3054 9.13655L39.8771 10.7086C40.0404 10.8715 40.3619 11.0045 40.5927 11.0045H46.6977C46.9282 11.0045 47.1164 10.8167 47.1164 10.5862V4.23701C47.1164 4.00688 46.9831 3.68538 46.8201 3.52241L45.4919 2.19346C45.3289 2.03083 45.0071 1.89752 44.7766 1.89752H44.674Z" fill="#C7ADA1"/>
<path d="M50.3174 1.89752C50.5483 1.89752 50.8698 2.03083 51.0331 2.19346L52.225 3.38604C52.3876 3.54901 52.333 3.68196 52.1022 3.68196H50.4634C50.2326 3.68196 50.0444 3.8705 50.0444 4.10063V8.41684C50.0444 8.64731 50.2326 8.8355 50.4634 8.8355H54.7789C55.0097 8.8355 55.1982 8.64731 55.1982 8.41684V6.77729C55.1982 6.5475 55.3312 6.49193 55.4938 6.6549L56.6864 7.8468C56.8484 8.00976 56.982 8.2999 56.982 8.4915C56.982 8.68379 56.8484 8.97358 56.6864 9.13655L55.1144 10.7086C54.9514 10.8715 54.6299 11.0045 54.3991 11.0045H48.2943C48.0635 11.0045 47.875 10.8167 47.875 10.5862V4.23701C47.875 4.00688 48.0087 3.68538 48.1713 3.52241L49.4999 2.19346C49.6625 2.03083 49.984 1.89752 50.2152 1.89752H50.3174Z" fill="#C7ADA1"/>
<path d="M39.4177 11.2859C39.5319 11.4004 39.5319 11.5879 39.4177 11.7028L38.1484 12.9711C38.0335 13.086 37.8463 13.086 37.7314 12.9711L36.4631 11.7032C36.3482 11.5883 36.3482 11.4008 36.4631 11.2865L37.7314 10.0176C37.8463 9.90269 38.0335 9.90269 38.1484 10.0176L39.4177 11.2859Z" fill="#C7ADA1"/>
<path d="M28.1557 19.589C28.2702 19.7035 28.2702 19.891 28.1557 20.0056L26.8864 21.2742C26.7718 21.3887 26.5843 21.3887 26.4694 21.2742L25.2011 20.0059C25.0866 19.8914 25.0866 19.7039 25.2011 19.589L26.4694 18.3204C26.5843 18.2058 26.7718 18.2058 26.8864 18.3204L28.1557 19.589Z" fill="#C7ADA1"/>
<path d="M69.9993 19.589C70.1139 19.7035 70.1139 19.891 69.9993 20.0056L68.73 21.2742C68.6155 21.3887 68.428 21.3887 68.3134 21.2742L67.0452 20.0059C66.9303 19.8914 66.9303 19.7039 67.0452 19.589L68.3134 18.3204C68.428 18.2058 68.6155 18.2058 68.73 18.3204L69.9993 19.589Z" fill="#C7ADA1"/>
<path d="M48.9545 1.35458C49.0691 1.46914 49.0691 1.65666 48.9545 1.77121L47.6855 3.03982C47.5707 3.15437 47.3831 3.15437 47.2682 3.03982L46 1.77154C45.8854 1.65699 45.8854 1.46983 46 1.35493L47.2682 0.0859734C47.3831 -0.0285799 47.5707 -0.0285799 47.6855 0.0859734L48.9545 1.35458Z" fill="#C7ADA1"/>
<path d="M46.691 11.8725H40.6245C40.395 11.8725 40.0756 12.0054 39.914 12.1684L38.3511 13.7404C38.1906 13.9034 38.0579 14.1932 38.0579 14.3855C38.0579 14.5774 38.1906 14.8672 38.3511 15.0302L39.5369 16.2221C39.6985 16.385 39.8304 16.3295 39.8304 16.0997V14.4601C39.8304 14.2297 40.018 14.0415 40.2474 14.0415H44.5357C44.7648 14.0415 44.9519 14.2297 44.9519 14.4601V16.3291H44.954V16.8644C44.954 17.0945 44.7654 17.2827 44.535 17.2827H29.3744C29.1436 17.2827 28.9554 17.0945 28.9554 16.8644V15.1775C28.9554 14.9477 28.8221 14.8918 28.6591 15.0551L27.4662 16.248C27.3032 16.4109 27.1699 16.7321 27.1699 16.9626V17.2346C27.1699 17.4648 27.3032 17.7863 27.4655 17.9492L28.6884 19.1715C28.8507 19.3344 29.1726 19.4674 29.403 19.4674H46.6883C46.9188 19.4674 47.1073 19.2792 47.1073 19.0487V16.3291V14.9323V12.2911C47.1073 12.0606 46.9205 11.8725 46.691 11.8725Z" fill="#C7ADA1"/>
<path d="M55.4863 11.2859C55.3718 11.4004 55.3718 11.5879 55.4863 11.7028L56.7556 12.9711C56.8701 13.086 57.058 13.086 57.1726 12.9711L58.4408 11.7032C58.5554 11.5883 58.5554 11.4008 58.4408 11.2865L57.1726 10.0176C57.058 9.90269 56.8701 9.90269 56.7556 10.0176L55.4863 11.2859Z" fill="#C7ADA1"/>
<path d="M48.2776 11.8725H54.3445C54.5736 11.8725 54.8931 12.0054 55.0547 12.1684L56.6172 13.7404C56.7777 13.9034 56.9107 14.1932 56.9107 14.3855C56.9107 14.5774 56.7777 14.8672 56.6172 15.0302L55.4317 16.2221C55.2701 16.385 55.1378 16.3295 55.1378 16.0997V14.4601C55.1378 14.2297 54.9507 14.0415 54.7212 14.0415H50.433C50.2035 14.0415 50.0167 14.2297 50.0167 14.4601V16.3291H50.0147V16.8644C50.0147 17.0945 50.2029 17.2827 50.4337 17.2827H65.5943C65.8247 17.2827 66.0133 17.0945 66.0133 16.8644V15.1775C66.0133 14.9477 66.1466 14.8918 66.3095 15.0551L67.5021 16.248C67.6654 16.4109 67.7987 16.7321 67.7987 16.9626V17.2346C67.7987 17.4648 67.6654 17.7863 67.5028 17.9492L66.2799 19.1715C66.1179 19.3344 65.7961 19.4674 65.5656 19.4674H48.2803C48.0499 19.4674 47.8613 19.2792 47.8613 19.0487V16.3291V14.9323V12.2911C47.8613 12.0606 48.0482 11.8725 48.2776 11.8725Z" fill="#C7ADA1"/>
<path d="M47.1073 20.7785C47.1073 20.5487 46.9188 20.3602 46.6883 20.3602H29.403C29.1726 20.3602 28.8507 20.4931 28.6884 20.6561L27.4655 21.8784C27.3032 22.0413 27.1699 22.3628 27.1699 22.5929V22.8647C27.1699 23.0948 27.3032 23.4166 27.4662 23.5796L28.6591 24.7725C28.8221 24.9355 28.9554 24.8803 28.9554 24.6501V22.9635C28.9554 22.7331 29.1436 22.5449 29.3744 22.5449H44.535C44.7654 22.5449 44.954 22.7331 44.954 22.9635V24.8953C44.954 25.1254 44.9554 25.3136 44.9577 25.3136C44.9598 25.3136 44.9611 25.5018 44.9611 25.7323V35.4522C44.9611 35.6827 44.8105 35.7581 44.6257 35.62L40.3978 32.4646C40.2133 32.3269 40.0606 32.0259 40.0575 31.7954L40.0374 30.1586C40.0343 29.9281 39.8881 29.8609 39.7115 30.0086L39.4397 30.2349C39.2631 30.3829 39.0091 30.6567 38.8741 30.8435L38.6566 31.1469C38.5216 31.3345 38.4169 31.6754 38.4234 31.9059L38.466 33.4162C38.4725 33.6463 38.627 33.9494 38.81 34.0892L46.7674 40.1905C46.9508 40.3306 47.0998 40.2567 47.0998 40.0265V38.5193C47.0998 38.2891 47.0998 37.9584 47.0998 37.7839C47.0998 37.6097 47.0998 37.2793 47.0998 37.0488V25.7323C47.0998 25.5018 47.1015 25.3136 47.1036 25.3136C47.1056 25.3136 47.1073 25.1254 47.1073 24.8953V20.7785Z" fill="#C7ADA1"/>
<path d="M67.5579 21.8782L66.3363 20.656C66.1733 20.493 65.8515 20.3601 65.621 20.3601H48.3361C48.1053 20.3601 47.8789 20.5397 47.8789 20.7699L47.9011 24.2631V40.9619L54.6007 46.2208C54.7828 46.3623 55.0504 46.332 55.196 46.1537L56.1953 44.9287C56.3412 44.75 56.4602 44.4156 56.4602 44.1855V42.9056C56.4602 42.6755 56.334 42.3468 56.1806 42.176L55.0358 40.903C54.8823 40.7321 54.6768 40.5988 54.5803 40.6074C54.4835 40.6159 54.4078 40.8112 54.4129 41.0417L54.4388 42.2708C54.4439 42.5012 54.3914 42.746 54.3225 42.8149C54.255 42.8838 54.0528 42.8207 53.8759 42.6748L50.0401 39.5225V25.0445C50.0578 24.9978 50.038 22.9634 50.038 22.9634C50.038 22.733 50.2586 22.5447 50.4894 22.5447H65.65C65.8808 22.5447 66.0687 22.733 66.0687 22.9634V24.65C66.0687 24.8801 66.2023 24.9354 66.3653 24.7724L67.5579 23.5795C67.7208 23.4165 67.8545 23.0947 67.8545 22.8646V22.5928C67.8545 22.3627 67.7208 22.0412 67.5579 21.8782Z" fill="#C7ADA1"/>
<path d="M39.327 35.5149C39.4518 35.6182 39.4688 35.8051 39.3662 35.9298L38.2186 37.3093C38.1157 37.434 37.9282 37.4514 37.8034 37.3474L36.4243 36.2016C36.2999 36.0983 36.2825 35.9114 36.3858 35.7867L37.5323 34.4069C37.6353 34.2821 37.8228 34.2647 37.9476 34.3684L39.327 35.5149Z" fill="#C7ADA1"/>
<path d="M58.485 46.3367C58.6098 46.4403 58.6272 46.6272 58.5239 46.7516L57.3767 48.1314C57.2737 48.2561 57.0862 48.2732 56.9614 48.1699L55.5827 47.024C55.4579 46.92 55.4409 46.7335 55.5438 46.6088L56.69 45.2287C56.7933 45.1039 56.9808 45.0868 57.1056 45.1901L58.485 46.3367Z" fill="#C7ADA1"/>
<path d="M47.1397 41.8953C47.1397 41.7675 47.1397 41.5377 47.0368 41.4071L40.5069 36.3153C40.3252 36.1738 40.0575 36.2041 39.912 36.3824L38.9127 37.6077C38.7671 37.786 38.6481 38.1205 38.6481 38.351V39.6305C38.6481 39.8603 38.7739 40.1893 38.9277 40.3601L40.0722 41.6335C40.2256 41.8043 40.4312 41.9372 40.528 41.9284C40.6245 41.9205 40.7002 41.7248 40.6954 41.4944L40.6692 40.2653C40.6641 40.0348 40.7169 39.7904 40.7854 39.7212C40.8529 39.6523 41.0551 39.7154 41.2324 39.8616C41.2324 39.8616 44.8695 42.7773 44.9632 42.928C45.0744 43.107 44.9632 53.3939 44.9632 53.3939C44.7361 58.2021 41.7544 61.4931 38.2213 63.4712C35.3216 65.0941 32.8444 65.2938 31.1831 65.3862C29.029 65.5059 26.2446 65.6096 24.4449 64.925C23.5963 64.6018 21.4068 62.9711 21.099 61.1866C20.7911 59.4022 22.6219 54.61 25.9678 54.4178C28.7941 54.2555 32.375 54.9868 31.8983 58.1407C31.4183 61.3189 27.6295 60.3326 26.8911 58.6712C26.5218 57.8411 26.5832 56.8789 26.5832 56.8789C26.5832 56.8789 25.2604 58.7623 26.7063 60.6326C27.8832 62.1556 29.5684 62.9663 32.106 62.6172C33.9521 62.3635 36.698 59.4097 35.5061 55.5868C34.0459 50.9048 29.2882 50.9362 26.5218 52.0179C21.7218 53.8948 20.4989 58.9252 20.4989 58.9252C20.4989 58.9252 19.6302 56.7566 21.6608 54.4178C23.6914 52.0793 28.6714 49.6703 30.7064 47.6489C31.8523 46.5105 32.8212 45.426 33.6753 43.603C33.7032 43.5427 33.7308 43.4742 33.7588 43.4114C34.0905 43.1864 34.395 43.2645 34.5521 43.2798C34.86 43.3105 35.7829 43.588 35.9057 45.0953C36.0744 47.1682 33.8137 47.8337 34.2443 50.3566C34.6773 52.8958 39.4442 52.5413 39.4442 52.5413C39.4442 52.5413 36.0124 50.0583 37.598 47.8644C39.0436 45.8644 38.5209 43.588 37.2598 42.942C36.0816 42.3382 34.6681 42.6351 33.994 42.837C35.0574 40.0382 35.5688 35.435 30.9522 33.1269C28.6138 31.9575 22.8991 32.6884 20.6759 37.2498C18.5355 41.6403 19.3684 43.8799 17.8915 45.3568C16.4149 46.8337 15.1995 46.8491 15.1995 46.8491C15.1995 46.8491 15.6307 47.8337 18.3377 47.0338C21.0451 46.2337 23.8758 43.4029 24.6757 41.0648C25.4755 38.7267 27.1982 35.4033 30.6444 36.2034C34.0905 37.0036 32.99 43.0102 31.5673 44.8185C28.2756 49.0027 24.8141 49.9488 22.5991 51.7718C22.1906 52.1079 21.7529 52.529 21.3369 53.0257C21.4713 52.2239 21.5742 50.8748 20.9534 50.1091C20.3475 49.3624 19.1181 48.7433 17.5996 49.8326C15.9689 51.0016 17.2611 52.5706 17.2611 52.5706C17.2611 52.5706 17.8151 50.9709 19.0762 51.094C20.3373 51.2171 20.6455 51.7094 20.83 52.6937C20.8978 53.0557 20.9196 53.3411 20.92 53.5596C19.772 55.161 18.9623 57.421 19.784 60.2637C20.5804 63.0212 21.4177 64.1057 22.7064 65.0017C23.1981 65.3436 23.7671 65.6286 24.3879 65.867C23.7303 65.7691 23.0157 65.5369 21.7832 64.6941C18.9255 62.7392 17.4871 53.9255 12.9844 53.9255C7.90793 53.9255 5.66153 61.9558 2.70803 62.9711C1.58364 63.3574 0 62.5405 0 62.5405C0 62.5405 0.276841 66.8168 4.06119 66.9092C7.5012 66.9934 11.0762 60.2017 13.2302 59.4022C15.3842 58.6024 18.2805 64.5387 21.5374 66.017C23.1988 66.7708 25.9064 66.8301 27.5061 66.9092C36.2445 67.3401 39.4237 65.9191 41.7516 64.0788C44.0563 62.2561 45.9679 59.332 46.7971 56.4484C47.0705 55.4985 47.1152 55.0976 47.1172 54.2412C47.1281 50.1333 47.2185 43.4101 47.1397 41.8953Z" fill="#C7ADA1"/>
<path d="M92.2912 62.9711C89.3377 61.9558 87.0913 53.9255 82.0148 53.9255C77.5125 53.9255 76.0737 62.7392 73.2157 64.6941C71.9836 65.5369 71.2686 65.7691 70.611 65.867C71.2321 65.6286 71.8011 65.3436 72.2928 65.0017C73.5815 64.1057 74.4185 63.0212 75.2153 60.2637C76.0369 57.421 75.2272 55.161 74.0789 53.5596C74.0796 53.3411 74.1014 53.0557 74.1693 52.6937C74.3537 51.7094 74.6616 51.2171 75.923 51.094C77.1841 50.9709 77.7378 52.5706 77.7378 52.5706C77.7378 52.5706 79.0303 51.0016 77.4 49.8326C75.8811 48.7433 74.6517 49.3624 74.0458 50.1091C73.425 50.8748 73.528 52.2239 73.6623 53.0257C73.246 52.529 72.8086 52.1079 72.4005 51.7718C70.1848 49.9488 66.7236 49.0027 63.4319 44.8185C62.0089 43.0102 60.9084 37.0036 64.3548 36.2034C67.801 35.4033 69.5237 38.7267 70.3236 41.0648C71.123 43.4029 73.9541 46.2337 76.6615 47.0338C79.3685 47.8337 79.7998 46.8491 79.7998 46.8491C79.7998 46.8491 78.5843 46.8337 77.1078 45.3568C75.6308 43.8799 76.4634 41.6403 74.3234 37.2498C72.1001 32.6884 66.3207 31.1883 63.4282 32.7887C59.4066 35.0136 58.3514 39.5265 61.3055 43.9876C60.5671 43.9266 58.7042 45.2572 59.5514 48.326C60.4433 51.5567 57.4285 52.4179 57.4285 52.4179C57.4285 52.4179 63.3972 53.2177 61.3055 47.5565C60.4747 45.3091 61.8534 44.6402 61.8899 44.695C63.059 46.4488 63.1469 46.5105 64.2928 47.6489C66.3278 49.6703 71.3075 52.0793 73.3384 54.4178C75.3693 56.7566 74.5003 58.9252 74.5003 58.9252C74.5003 58.9252 73.2771 53.8948 68.4774 52.0179C65.7114 50.9362 60.9537 50.9048 59.4931 55.5868C58.3012 59.4097 61.0471 62.3635 62.8933 62.6172C65.4308 62.9663 67.1161 62.1556 68.293 60.6326C69.7385 58.7623 68.416 56.879 68.416 56.879C68.416 56.879 68.4774 57.8411 68.1082 58.6712C67.3697 60.3326 63.5809 61.3189 63.1009 58.1407C62.6243 54.9868 66.2054 54.2555 69.0314 54.4178C72.377 54.61 74.2081 59.4022 73.9003 61.1866C73.5924 62.9711 71.2884 64.925 69.3962 65.2478C67.4982 65.572 65.6889 65.5983 63.5352 65.4786C61.8735 65.3862 59.6776 65.0941 56.778 63.4712C53.3032 61.5259 50.1513 57.6788 50.0602 53.5238V46.9275C50.0602 46.697 50.2113 46.6217 50.3957 46.7594L54.6236 49.9151C54.8081 50.0525 54.9608 50.3535 54.9639 50.584L54.9843 52.2211C54.9867 52.4516 55.1333 52.5188 55.3102 52.3708L55.582 52.1444C55.7586 51.9968 56.0122 51.723 56.1472 51.5359L56.3647 51.2324C56.4998 51.0453 56.6041 50.7043 56.5979 50.4739L56.5553 48.9635C56.5489 48.7331 56.3944 48.4303 56.2113 48.2902L48.254 42.1889C48.0705 42.0491 47.9216 42.1231 47.9216 42.3528V43.8601C47.9216 44.0902 47.9216 44.4209 47.9216 44.5955C47.9216 44.7697 47.9216 45.1004 47.9216 45.3309V53.7761C47.9209 53.7939 47.9171 53.8075 47.9171 53.8256C47.8708 56.6638 49.2785 60.9401 53.2476 64.0788C55.5755 65.9191 58.7547 67.3401 67.4931 66.9092C69.0928 66.8301 71.796 66.7708 73.4618 66.017C76.7205 64.5421 79.6146 58.6024 81.769 59.4022C83.9227 60.2017 87.4987 66.9934 90.938 66.9092C94.722 66.8168 94.9992 62.5405 94.9992 62.5405C94.9992 62.5405 93.4156 63.3574 92.2912 62.9711Z" fill="#C7ADA1"/>
</svg>
