<svg width="125" height="19" viewBox="0 0 125 19" fill="none" xmlns="http://www.w3.org/2000/svg">
<path d="M62.4274 10.4487V9.33954H0V10.4487H62.4274Z" fill="#C7ADA1"/>
<path d="M22.2394 11.846C23.3133 11.846 24.1898 10.9733 24.1898 9.8958C24.1898 8.81767 23.3133 7.94635 22.2394 7.94635C21.1613 7.94635 20.2891 8.81767 20.2891 9.8958C20.2891 10.9733 21.1613 11.846 22.2394 11.846Z" fill="#C7ADA1"/>
<path d="M52.5672 12.3946C53.9466 12.3946 55.0661 11.2786 55.0661 9.89575C55.0661 8.51293 53.9466 7.39758 52.5672 7.39758C51.1885 7.39758 50.0684 8.51293 50.0684 9.89575C50.0684 11.2786 51.1885 12.3946 52.5672 12.3946Z" fill="#C7ADA1"/>
<path d="M52.5796 11.0119C53.1966 11.0119 53.6984 10.5128 53.6984 9.89585C53.6984 9.27475 53.1966 8.77637 52.5796 8.77637C51.962 8.77637 51.4629 9.27475 51.4629 9.89585C51.4629 10.5128 51.962 11.0119 52.5796 11.0119Z" fill="white"/>
<path d="M50.6427 9.81587C50.6427 9.81518 48.0445 6.71177 44.3837 6.84067C41.4012 6.94821 39.2642 8.8253 35.7712 8.8253C27.7869 8.8253 23.3379 0.802673 23.3379 0.802673C23.3379 0.802673 29.5811 4.63958 36.1786 2.67633C39.188 1.78225 42.4336 1.16528 45.603 3.05823C48.7718 4.95186 50.3986 7.92637 51.0501 9.09619C51.698 10.2653 50.6427 9.81587 50.6427 9.81587Z" fill="#C7ADA1"/>
<path d="M50.6427 9.98748C50.6427 9.98748 48.0445 13.0916 44.3837 12.962C41.4012 12.8552 39.2642 10.9774 35.7712 10.9774C27.7869 10.9774 23.3379 19 23.3379 19C23.3379 19 29.5811 15.1638 36.1786 17.1256C39.188 18.0204 42.4336 18.6381 45.603 16.7444C48.7718 14.8515 50.3986 11.8763 51.0501 10.7072C51.698 9.53734 50.6427 9.98748 50.6427 9.98748Z" fill="#C7ADA1"/>
<path d="M44.6001 12.2568C47.1415 12.2568 49.2019 11.1911 49.2019 9.87997C49.2019 8.56608 47.1415 7.50378 44.6001 7.50378C42.0591 7.50378 38.7266 9.87997 38.7266 9.87997C38.7266 9.87997 42.0591 12.2568 44.6001 12.2568Z" fill="#C7ADA1"/>
<path d="M54.5581 17.9522C53.5379 17.1257 53.6399 15.3003 54.7911 13.8761C55.6673 12.7911 57.8111 12.3113 58.79 12.1472L60.7746 9.75104L61.415 10.2763L59.3346 12.7869C59.369 13.8499 59.3125 15.838 58.4936 16.8589C57.3424 18.2872 55.5832 18.7753 54.5581 17.9522Z" fill="#C7ADA1"/>
<path d="M54.5581 1.83531C53.5379 2.6577 53.6399 4.48311 54.7911 5.91143C55.6673 6.99715 57.8111 7.47279 58.79 7.64099L60.7746 10.0365L61.415 9.5105L59.3346 7.00058C59.369 5.9383 59.3125 3.9454 58.4936 2.92793C57.3424 1.4996 55.5832 1.01223 54.5581 1.83531Z" fill="#C7ADA1"/>
<path d="M62.4258 10.4487V9.33954H124.852V10.4487H62.4258Z" fill="#C7ADA1"/>
<path d="M102.615 11.846C101.536 11.846 100.664 10.9733 100.664 9.8958C100.664 8.81767 101.536 7.94635 102.615 7.94635C103.692 7.94635 104.565 8.81767 104.565 9.8958C104.565 10.9733 103.692 11.846 102.615 11.846Z" fill="#C7ADA1"/>
<path d="M72.284 12.3946C70.9019 12.3946 69.7852 11.2786 69.7852 9.89575C69.7852 8.51293 70.9019 7.39758 72.284 7.39758C73.6641 7.39758 74.7829 8.51293 74.7829 9.89575C74.7829 11.2786 73.6641 12.3946 72.284 12.3946Z" fill="#C7ADA1"/>
<path d="M72.2731 11.0119C71.6561 11.0119 71.1543 10.5128 71.1543 9.89585C71.1543 9.27475 71.6561 8.77637 72.2731 8.77637C72.8908 8.77637 73.3891 9.27475 73.3891 9.89585C73.3891 10.5128 72.8908 11.0119 72.2731 11.0119Z" fill="white"/>
<path d="M74.2133 9.81587C74.2133 9.81518 76.8115 6.71177 80.4684 6.84067C83.4547 6.94821 85.5882 8.8253 89.0846 8.8253C97.0692 8.8253 101.518 0.802673 101.518 0.802673C101.518 0.802673 95.2749 4.63958 88.6737 2.67633C85.6682 1.78225 82.4186 1.16528 79.2497 3.05823C76.0801 4.95186 74.4532 7.92637 73.8052 9.09619C73.1545 10.2653 74.2133 9.81587 74.2133 9.81587Z" fill="#C7ADA1"/>
<path d="M74.2133 9.98748C74.2133 9.98748 76.8115 13.0916 80.4684 12.962C83.4547 12.8552 85.5882 10.9774 89.0846 10.9774C97.0692 10.9774 101.518 19 101.518 19C101.518 19 95.2749 15.1638 88.6737 17.1256C85.6682 18.0204 82.4186 18.6381 79.2497 16.7444C76.0801 14.8515 74.4532 11.8763 73.8052 10.7072C73.1545 9.53734 74.2133 9.98748 74.2133 9.98748Z" fill="#C7ADA1"/>
<path d="M80.2544 12.2568C77.7128 12.2568 75.6523 11.1911 75.6523 9.87997C75.6523 8.56608 77.7128 7.50378 80.2544 7.50378C82.794 7.50378 86.1242 9.87997 86.1242 9.87997C86.1242 9.87997 82.794 12.2568 80.2544 12.2568Z" fill="#C7ADA1"/>
<path d="M70.2976 17.9522C71.3186 17.1257 71.2165 15.3003 70.0653 13.8761C69.1899 12.7911 67.0405 12.3113 66.0657 12.1472L64.0777 9.75104L63.4414 10.2763L65.5212 12.7869C65.4874 13.8499 65.5439 15.838 66.3629 16.8589C67.5134 18.2872 69.2733 18.7753 70.2976 17.9522Z" fill="#C7ADA1"/>
<path d="M70.2976 1.83531C71.3186 2.6577 71.2165 4.48311 70.0653 5.91143C69.1899 6.99715 67.0405 7.47279 66.0657 7.64099L64.0777 10.0365L63.4414 9.5105L65.5212 7.00058C65.4874 5.9383 65.5439 3.9454 66.3629 2.92793C67.5134 1.4996 69.2733 1.01223 70.2976 1.83531Z" fill="#C7ADA1"/>
</svg>
