<?xml version="1.0" encoding="utf-8"?><svg xmlns="http://www.w3.org/2000/svg" xmlns:xlink="http://www.w3.org/1999/xlink">
    <symbol viewBox="0 0 12 22" id="arrow" xmlns="http://www.w3.org/2000/svg">
        <path d="M1.123 1.244 10.879 11l-9.756 9.756" />
    </symbol>
    <symbol viewBox="0 0 24 24" id="check" xmlns="http://www.w3.org/2000/svg">
        <path d="M19.707 6.293a1 1 0 0 1 0 1.414l-10 10a1 1 0 0 1-1.414 0l-4-4a1 1 0 1 1 1.414-1.414L9 15.586l9.293-9.293a1 1 0 0 1 1.414 0Z" />
    </symbol>
    <symbol viewBox="0 0 23 23" id="copy" xmlns="http://www.w3.org/2000/svg">
        <path d="M19.406 2.875h-11.5a.719.719 0 0 0-.718.719v3.594H3.594a.719.719 0 0 0-.719.718v11.5a.719.719 0 0 0 .719.719h11.5a.719.719 0 0 0 .719-.719v-3.593h3.593a.719.719 0 0 0 .719-.72v-11.5a.719.719 0 0 0-.719-.718Zm-5.031 15.813H4.312V8.624h10.063v10.063Zm4.313-4.313h-2.875V7.906a.719.719 0 0 0-.72-.718H8.626V4.313h10.063v10.062Z" />
    </symbol>
    <symbol viewBox="0 0 27 19" id="metro" xmlns="http://www.w3.org/2000/svg">
        <path d="M7.841 3.998c-.39-1.206-1.449-1.074-2.172-.512-1.784 1.504-4.105 4.66-2.62 9.203 1.245 3.85 6.423 6.312 6.423 6.312H3.436S.319 15.812.04 12.06C-.313 7.32 1.768 4.33 4.183 2.38 6.449.546 8.603 0 8.603 0l4.408 13.182L17.419.001s2.154.545 4.42 2.379c2.415 1.95 4.496 4.94 4.143 9.682-.279 3.75-3.396 6.939-3.396 6.939H16.55s5.178-2.462 6.423-6.312c1.486-4.543-.835-7.699-2.619-9.203-.724-.562-1.783-.694-2.172.512l-5.17 14.88S9.18 7.844 7.843 3.998Z" />
    </symbol>
    <symbol viewBox="0 0 48 48" id="plus" xmlns="http://www.w3.org/2000/svg">
        <path d="M24 .89A23.11 23.11 0 1 0 47.11 24 23.137 23.137 0 0 0 24 .89Zm0 43.5A20.39 20.39 0 1 1 44.39 24 20.413 20.413 0 0 1 24 44.39ZM34.422 24a1.36 1.36 0 0 1-1.36 1.36H25.36v7.703a1.36 1.36 0 1 1-2.718 0v-7.704h-7.703a1.36 1.36 0 1 1 0-2.718h7.703v-7.703a1.36 1.36 0 0 1 2.718 0v7.703h7.703A1.36 1.36 0 0 1 34.422 24Z" />
    </symbol>
    <symbol viewBox="0 0 30 31" id="print" xmlns="http://www.w3.org/2000/svg">
        <path d="M24.61 8.006V1.437H5.39v6.569a4.693 4.693 0 0 0-4.452 4.681v11.25h3.984v-1.875h-2.11v-9.375a2.816 2.816 0 0 1 2.813-2.812h18.75a2.816 2.816 0 0 1 2.813 2.813v9.374h-2.579v1.875h4.453v-11.25a4.693 4.693 0 0 0-4.453-4.681ZM22.733 8H7.266V3.312h15.468V8Z" />
        <path d="M23.203 12.219h1.875v1.875h-1.875v-1.875Zm-16.406 3.75H4.453v1.875h2.344v11.718h15.937V17.845h2.344v-1.875H6.797Zm14.062 11.719H8.672v-9.844h12.187v9.843Z" />
    </symbol>
</svg>