<svg width="52" height="41" viewBox="0 0 52 41" fill="none" xmlns="http://www.w3.org/2000/svg">
<path d="M24.379 36.9637V37.9467C24.379 40.4318 30.9062 40.5026 31.6533 40.5026C32.2353 40.5026 36.3876 40.4554 38.1413 39.2286C39.895 40.4554 44.0473 40.5026 44.6292 40.5026C45.3763 40.5026 51.9036 40.4318 51.9036 37.9467V34.8011C51.9036 32.4654 46.1392 32.2609 44.8259 32.2452V31.2622C44.8259 30.5937 44.3461 30.1061 43.6462 29.7444V11.4051C43.6462 10.9726 43.2923 10.6187 42.8598 10.6187H40.1073V7.86622V4.32734C40.1073 3.89481 39.7535 3.54092 39.3209 3.54092H36.5685V1.96809C36.5685 1.71643 36.4505 1.48051 36.2382 1.33109C36.0337 1.18167 35.7663 1.14235 35.5304 1.22099L33.0296 2.05459V0.788459C33.0296 0.544669 32.9195 0.316607 32.7307 0.167187C32.542 0.0177677 32.2903 -0.0372818 32.0544 0.0256316L17.8596 3.57238C17.8045 3.56451 17.7573 3.54092 17.6944 3.54092H3.93209C3.82986 3.54092 3.73549 3.55665 3.64898 3.59597C1.58857 3.9184 0 5.71144 0 7.86622V32.6384C0 35.1471 1.65148 36.9637 3.93209 36.9637H24.379ZM50.3308 37.8602C49.969 38.2613 47.8614 38.9298 44.6292 38.9298C41.3971 38.9298 39.2895 38.2613 38.9277 37.8602V36.9637V36.9165C39.2344 36.9008 39.5804 36.8693 39.9343 36.83C40.1152 36.8772 40.3039 36.9165 40.4927 36.9558C42.2779 37.3255 44.236 37.3491 44.6292 37.3491C45.1404 37.3491 48.349 37.3176 50.3308 36.4997V37.8602ZM31.8499 34.3213V33.818V33.0316V32.9687C31.9129 32.9923 31.9758 33.0159 32.0387 33.0395C33.6587 33.645 35.9551 33.7866 37.0325 33.8102C37.2841 33.818 37.465 33.818 37.5515 33.818C37.6065 33.818 37.693 33.818 37.7953 33.818C37.9604 33.818 38.1963 33.8102 38.4716 33.7944C38.7626 33.7787 39.1007 33.763 39.4703 33.7315C40.2725 33.6686 41.2083 33.5507 42.0813 33.3383C42.3722 33.2675 42.6475 33.1889 42.907 33.0945C43.025 33.0552 43.1508 33.0159 43.2609 32.9687V33.0709V33.8652V34.3213C43.1351 34.4629 42.789 34.6359 42.2621 34.8011C42.1992 34.8168 42.1442 34.8404 42.0813 34.8561C41.5622 35.0055 40.8859 35.1392 40.0838 35.2415C39.722 35.2886 39.3445 35.3201 38.9356 35.3437C38.8884 35.3437 38.8491 35.3516 38.8019 35.3516C38.6918 35.3594 38.5896 35.3594 38.4873 35.3673C38.3772 35.3751 38.2593 35.3751 38.1413 35.3751C38.0155 35.3751 37.8975 35.383 37.7717 35.383C37.693 35.383 37.6301 35.3909 37.5515 35.3909C37.5358 35.3909 37.5279 35.3909 37.5122 35.3909C37.4571 35.3909 37.4099 35.3909 37.3549 35.3909C36.8358 35.383 36.3561 35.3594 35.9 35.328C34.5946 35.2257 33.5565 35.0291 32.8487 34.8089C32.3218 34.6359 31.9758 34.4629 31.8499 34.3213ZM42.0734 31.7104C41.0825 31.9935 39.5333 32.2452 37.5515 32.2452C34.5316 32.2452 32.4948 31.6632 31.9443 31.2622C32.4948 30.8611 34.5316 30.2792 37.5515 30.2792C39.5333 30.2792 41.0825 30.5308 42.0734 30.8139C42.5924 30.9633 42.9699 31.1206 43.1586 31.2622C42.9699 31.3959 42.5924 31.561 42.0734 31.7104ZM30.34 34.8011C30.4108 35.0213 30.5445 35.2179 30.7096 35.3909C30.8433 35.5324 31.0006 35.6583 31.1815 35.7762C29.7581 35.7448 28.5784 35.5953 27.6898 35.3909C26.8641 35.2021 26.29 34.9819 26.0383 34.8011C26.4944 34.4629 28.0122 34.0068 30.2692 33.8652V34.4078C30.2771 34.5494 30.3007 34.6752 30.34 34.8011ZM25.9518 36.9637V36.5076C26.4237 36.7042 26.9663 36.8457 27.5168 36.9637C29.302 37.3333 31.2601 37.3569 31.6533 37.3569C32.0387 37.3569 33.9969 37.3333 35.7899 36.9637C35.8764 36.948 35.9551 36.9323 36.0416 36.9087C36.6156 36.948 37.0796 36.9558 37.3549 36.9637V37.8602C36.9931 38.2613 34.8855 38.9298 31.6533 38.9298C28.4212 38.9298 26.3136 38.2613 25.9518 37.8602V36.9637ZM44.6292 35.7841C44.3855 35.7841 44.1574 35.7762 43.9215 35.7684C44.3383 35.5088 44.6371 35.1943 44.7551 34.8011C44.7944 34.6752 44.818 34.5494 44.818 34.4078V33.8259C47.7277 33.8495 49.6938 34.4078 50.2285 34.8011C49.6859 35.2021 47.6491 35.7841 44.6292 35.7841ZM38.5345 5.11376V7.07981H36.5685V5.11376H38.5345ZM34.9956 3.06121V4.32734V7.07981H33.0296V3.71393L34.9956 3.06121ZM31.4567 7.07981H10.3178L31.4567 1.79507V7.07981ZM4.3253 5.11376H11.7019L3.74335 7.1034C3.71976 7.11126 3.7119 7.11913 3.6883 7.12699C3.63325 7.14272 3.58607 7.16631 3.53888 7.19777C3.49956 7.22136 3.46024 7.24495 3.42092 7.27641C3.3816 7.30787 3.35014 7.34719 3.31869 7.38651C3.28723 7.42583 3.25577 7.46515 3.24004 7.51234C3.21645 7.55952 3.20072 7.60671 3.19286 7.64603C3.17713 7.69321 3.16927 7.74826 3.1614 7.80331C3.1614 7.8269 3.14567 7.84263 3.14567 7.86622C3.14567 7.89768 3.1614 7.92914 3.1614 7.96059C3.1614 7.99205 3.1614 8.02351 3.1614 8.05497C3.16927 8.07856 3.18499 8.09429 3.19286 8.11788C3.20859 8.1572 3.22432 8.18866 3.24004 8.22011C3.26364 8.27516 3.29509 8.32235 3.33441 8.36167C3.35801 8.38526 3.3816 8.41672 3.40519 8.44031C3.45238 8.47963 3.49956 8.51109 3.55461 8.54254C3.58607 8.55827 3.60966 8.574 3.64112 8.58973C3.72762 8.62119 3.82199 8.64478 3.92423 8.64478H32.2353H35.7742H38.5266V10.6108H4.31744C2.79965 10.6108 1.56497 9.37615 1.56497 7.85836C1.57284 6.34844 2.80751 5.11376 4.3253 5.11376ZM1.57284 32.6384V11.2006C2.31993 11.8219 3.27937 12.1915 4.3253 12.1915H39.3209H42.0734V29.186C40.1938 28.7299 37.9683 28.7063 37.5515 28.7063C36.8044 28.7063 30.2771 28.7771 30.2771 31.2622V32.2924C28.1381 32.4182 24.379 32.9137 24.379 34.8011V35.3909H3.93209C2.30421 35.3909 1.57284 34.0068 1.57284 32.6384Z" fill="black"/>
</svg>
