<svg width="48" height="45" viewBox="0 0 48 45" fill="none" xmlns="http://www.w3.org/2000/svg">
<path d="M47.3747 33.2223C47.3747 33.2048 47.3747 33.2048 47.3747 33.1873C47.3747 33.1348 47.3396 33.0998 47.3396 33.0648C47.3221 33.0123 47.3221 32.9422 47.287 32.8897C47.2694 32.8372 47.2344 32.8022 47.1993 32.7497C47.1642 32.6972 47.1291 32.6622 47.094 32.6097C47.0589 32.5747 47.0238 32.5572 46.9712 32.5222C46.9185 32.4872 46.8659 32.4522 46.7957 32.4347C46.7431 32.4172 46.708 32.4172 46.6553 32.3997C46.6027 32.3822 46.5501 32.3647 46.4974 32.3647C46.4799 32.3647 46.4799 32.3647 46.4623 32.3647C46.4448 32.3647 46.4448 32.3647 46.4272 32.3647L41.7424 32.7672V14.0594C41.7424 14.0419 41.7248 14.0244 41.7248 14.0069V5.60668C41.7248 4.11915 41.1458 2.70162 40.0755 1.6516C39.128 0.689077 37.8998 0.146566 36.6715 0.0590637C36.5487 0.00656259 36.4259 -0.0109377 36.3031 0.00656264L5.33404 1.7741C5.26386 1.7741 5.19367 1.8091 5.12349 1.8266C4.96557 1.8441 4.80766 1.8266 4.64974 1.8441C1.96517 2.29911 0 4.62666 0 7.35671V10.6993C0 10.7168 0 10.7168 0 10.7343C0 10.7518 0 10.7693 0 10.7868C0 10.8393 0.0350924 10.8918 0.0350924 10.9268C0.0526385 10.9793 0.0526385 11.0318 0.0701847 11.0668C0.105277 11.1193 0.140369 11.1718 0.175462 11.2243C0.210554 11.2593 0.228101 11.2943 0.263193 11.3293C0.315832 11.3818 0.36847 11.4168 0.438655 11.4518C0.473747 11.4693 0.50884 11.5043 0.543932 11.5218C0.649209 11.5568 0.754486 11.5743 0.87731 11.5743C0.894856 11.5743 0.929948 11.5743 0.947494 11.5743L9.47494 10.8393V37.0023C9.47494 39.1374 10.3172 41.1499 11.8261 42.6549C13.3351 44.16 15.3529 45 17.4936 45C17.5111 45 17.5462 45 17.5637 45L17.6866 44.9825C18.0199 44.9825 18.3533 44.9475 18.6867 44.895L39.4263 43.2325C39.4438 43.2325 39.4438 43.2325 39.4614 43.2325C42.918 42.795 45.1464 41.4299 46.4448 38.9624C47.0413 37.8248 47.3572 36.5298 47.3572 35.2348V33.2398C47.3747 33.2398 47.3747 33.2398 47.3747 33.2223ZM1.75462 9.75427V7.35671C1.75462 5.46668 3.10568 3.87414 4.94803 3.55914C6.15871 3.36663 7.45713 3.75164 8.33444 4.64416C9.07138 5.36167 9.47494 6.34169 9.47494 7.35671V9.07175L1.75462 9.75427ZM11.2296 37.0023V7.35671C11.2296 5.86918 10.6505 4.45166 9.58022 3.40163C9.52758 3.34913 9.47494 3.33163 9.42231 3.27913L36.0925 1.7566C36.1101 1.7566 36.1276 1.7741 36.1627 1.7566C37.1102 1.7216 38.0928 2.12411 38.8473 2.87662C39.5842 3.61164 39.9702 4.57416 39.9702 5.60668V14.0419C39.9702 14.0594 39.9878 14.0769 39.9878 14.0944V32.9247L24.5647 34.2723C24.512 34.2723 24.4769 34.3073 24.4418 34.3073C24.3892 34.3248 24.319 34.3248 24.2664 34.3598C24.2137 34.3773 24.1787 34.4123 24.126 34.4473C24.0734 34.4823 24.0383 34.5173 23.9856 34.5523C23.9506 34.5873 23.9155 34.6398 23.8979 34.6923C23.8628 34.7448 23.8277 34.7798 23.8102 34.8323C23.7926 34.8848 23.7926 34.9373 23.7751 35.0073C23.7751 35.0598 23.74 35.0948 23.74 35.1473V37.0023C23.74 38.0349 23.4944 38.9974 23.0206 39.9074C22.0907 41.6749 20.3711 42.8825 18.4235 43.18L17.4585 43.25C15.7916 43.25 14.2124 42.6024 13.0368 41.4124C11.8788 40.2399 11.2296 38.6649 11.2296 37.0023ZM44.9007 38.1574C43.8655 40.0999 42.1284 41.1324 39.2333 41.4999L22.968 42.795C23.5996 42.1999 24.1611 41.4999 24.5822 40.7124C25.1788 39.5749 25.4946 38.2799 25.4946 36.9848V35.9348L45.6201 34.2198V35.2523C45.6201 36.2848 45.3745 37.2473 44.9007 38.1574ZM14.6335 11.0318C14.5984 10.5593 14.9494 10.1218 15.4231 10.0868L35.6012 8.33674C36.075 8.30173 36.5136 8.65174 36.5487 9.14175C36.5838 9.61426 36.2329 10.0518 35.7591 10.0868L15.581 11.8368C15.5635 11.8368 15.5284 11.8368 15.5108 11.8368C15.0546 11.8368 14.6862 11.5043 14.6335 11.0318ZM14.6335 19.782C14.5984 19.3095 14.9494 18.872 15.4231 18.837L35.6012 17.0869C36.075 17.0519 36.5136 17.4019 36.5487 17.8919C36.5838 18.3644 36.2329 18.802 35.7591 18.837L15.581 20.587C15.5635 20.587 15.5284 20.587 15.5108 20.587C15.0546 20.587 14.6862 20.2545 14.6335 19.782ZM15.581 29.3372C15.5635 29.3372 15.5284 29.3372 15.5108 29.3372C15.0546 29.3372 14.6686 28.9872 14.6335 28.5322C14.5984 28.0596 14.9494 27.6221 15.4231 27.5871L35.6012 25.8371C36.075 25.8021 36.5136 26.1521 36.5487 26.6421C36.5838 27.1146 36.2329 27.5521 35.7591 27.5871L15.581 29.3372Z" fill="black"/>
</svg>
