<svg width="23" height="23" viewBox="0 0 23 23" fill="none" xmlns="http://www.w3.org/2000/svg">
<path d="M19.4062 2.875H7.90625C7.71563 2.875 7.53281 2.95073 7.39802 3.08552C7.26323 3.22031 7.1875 3.40313 7.1875 3.59375V7.1875H3.59375C3.40313 7.1875 3.22031 7.26323 3.08552 7.39802C2.95073 7.53281 2.875 7.71563 2.875 7.90625V19.4062C2.875 19.5969 2.95073 19.7797 3.08552 19.9145C3.22031 20.0493 3.40313 20.125 3.59375 20.125H15.0938C15.2844 20.125 15.4672 20.0493 15.602 19.9145C15.7368 19.7797 15.8125 19.5969 15.8125 19.4062V15.8125H19.4062C19.5969 15.8125 19.7797 15.7368 19.9145 15.602C20.0493 15.4672 20.125 15.2844 20.125 15.0938V3.59375C20.125 3.40313 20.0493 3.22031 19.9145 3.08552C19.7797 2.95073 19.5969 2.875 19.4062 2.875ZM14.375 18.6875H4.3125V8.625H14.375V18.6875ZM18.6875 14.375H15.8125V7.90625C15.8125 7.71563 15.7368 7.53281 15.602 7.39802C15.4672 7.26323 15.2844 7.1875 15.0938 7.1875H8.625V4.3125H18.6875V14.375Z" fill="#728B7B"/>
</svg>
