<svg width="22" height="19" viewBox="0 0 22 19" fill="none" xmlns="http://www.w3.org/2000/svg">
<path d="M1.49285 7.83643C7.3241 5.29643 11.2116 3.62174 13.1554 2.81268C18.7116 0.502365 19.8647 0.101115 20.6178 0.0875208C20.7835 0.0848645 21.1522 0.125802 21.3929 0.320333C21.5929 0.484395 21.6491 0.706271 21.6772 0.862052C21.7022 1.01768 21.7366 1.37236 21.7085 1.64924C21.4085 4.81174 20.1054 12.4861 19.4429 16.0283C19.1647 17.5271 18.6116 18.0296 18.0772 18.0786C16.9147 18.1855 16.0335 17.3111 14.9085 16.5739C13.1491 15.4199 12.1554 14.7017 10.446 13.5758C8.47098 12.2746 9.75223 11.5592 10.8772 10.3905C11.171 10.0846 16.2897 5.42986 16.3866 5.00768C16.3991 4.95486 16.4116 4.75799 16.2929 4.65424C16.1772 4.55018 16.0054 4.5858 15.8804 4.61393C15.7022 4.65393 12.8929 6.51268 7.44285 10.1899C6.64598 10.738 5.9241 11.0052 5.2741 10.9911C4.5616 10.9758 3.1866 10.5874 2.16473 10.2555C0.914727 9.8483 -0.0821487 9.63299 0.00535129 8.94143C0.0491013 8.58143 0.545976 8.21299 1.49285 7.83643Z" fill="white"/>
</svg>
