<svg width="22" height="13" viewBox="0 0 22 13" fill="none" xmlns="http://www.w3.org/2000/svg">
<path fill-rule="evenodd" clip-rule="evenodd" d="M20.6154 0.920809C20.7613 0.440809 20.6154 0.0874023 19.9165 0.0874023H17.6088C17.0215 0.0874023 16.7508 0.392457 16.604 0.729161C16.604 0.729161 15.4303 3.53883 13.7679 5.36389C13.2299 5.89312 12.9855 6.06103 12.6919 6.06103C12.5451 6.06103 12.3244 5.89312 12.3244 5.41224V0.920809C12.3244 0.344106 12.1626 0.0874023 11.6738 0.0874023H8.04483C7.67824 0.0874023 7.45758 0.354655 7.45758 0.608721C7.45758 1.15466 8.28923 1.28125 8.37451 2.81795V6.15685C8.37451 6.88916 8.24 7.02191 7.94637 7.02191C7.16396 7.02191 5.26066 4.19905 4.13099 0.96916C3.91209 0.340589 3.69055 0.0874023 3.10066 0.0874023H0.791209C0.131868 0.0874023 0 0.392457 0 0.729161C0 1.32872 0.782417 4.30718 3.64396 8.24652C5.55165 10.9366 8.23736 12.3951 10.684 12.3951C12.1512 12.3951 12.3323 12.0716 12.3323 11.5133V9.47993C12.3323 8.83202 12.4712 8.70279 12.9363 8.70279C13.2791 8.70279 13.8655 8.87158 15.2352 10.1683C16.8 11.7059 17.0576 12.3951 17.9385 12.3951H20.2462C20.9055 12.3951 21.236 12.0716 21.0462 11.4316C20.8369 10.7951 20.0897 9.87114 19.0989 8.77487C18.5609 8.1507 17.7538 7.47817 17.5086 7.14147C17.1666 6.70982 17.2642 6.51729 17.5086 6.13312C17.5086 6.13312 20.3218 2.24213 20.6145 0.920809H20.6154Z" fill="white"/>
</svg>
