<svg width="57" height="24" viewBox="0 0 57 24" fill="none" xmlns="http://www.w3.org/2000/svg">
<g clip-path="url(#clip0_1_336)">
<path d="M7.65939 3.89249L7.66794 3.85224L7.69074 3.68261L6.63624 3.67686C5.68434 3.67111 5.39221 3.67686 5.36656 3.7013C5.35374 3.7128 5.02456 4.97349 4.43889 7.25624C4.15959 8.34586 3.92446 9.21555 3.91591 9.18967C3.90736 9.1638 3.57391 7.92036 3.17206 6.4268C2.93146 5.51361 2.68255 4.60268 2.42536 3.69411C2.41111 3.67974 1.13431 3.67398 0.0997604 3.68261C-0.0498645 3.68405 -0.13394 3.38792 1.43641 8.42492C1.65301 9.12211 1.97934 10.1097 2.15889 10.6185C2.36694 11.205 2.51514 11.6593 2.61631 12.0374C2.79586 12.7575 2.80156 13.2089 2.76309 13.7365C2.71749 14.3445 2.71179 18.6427 2.75596 18.7145C2.79016 18.7692 4.78659 18.795 4.97611 18.7433C5.00604 18.7347 5.02599 18.7059 5.04024 18.5435C5.08726 18.404 5.09154 17.8477 5.09154 15.5391V12.5908L5.21979 12.184C5.30386 11.918 5.51334 11.218 5.68719 10.6286L6.15316 9.06174C6.90699 6.58349 7.62518 4.14692 7.64513 4.00749L7.66081 3.89392L7.65939 3.89249ZM18.8399 7.46899V7.6228H18.8157L18.8029 11.8677L18.7901 15.9833L18.4637 16.3182C18.0975 16.6934 17.8054 16.8372 17.5403 16.7696C17.2511 16.6963 17.2596 16.8099 17.2354 11.9454L17.2126 7.46755H15.1121V7.62136H15.0879V12.4801C15.0879 17.6853 15.0879 17.6824 15.3501 18.2042C15.5582 18.6211 15.8631 18.8238 16.3832 18.8928C17.0687 18.9848 17.8082 18.6714 18.4937 17.9987L18.7915 17.7069V18.2114C18.7915 18.647 18.8043 18.7189 18.8827 18.7404C19.0109 18.7764 20.6012 18.7792 20.7722 18.7433L20.9147 18.7131V18.5636L20.939 18.5593V7.4388L18.8414 7.46755L18.8399 7.46899ZM13.5133 9.66261C13.3138 8.80155 12.9419 8.22224 12.3277 7.82261C11.3644 7.19442 10.2629 7.12686 9.24256 7.63574C8.49871 8.00661 8.01849 8.62186 7.77196 9.52461C7.74031 9.63317 7.7179 9.74426 7.70499 9.85667C7.64229 10.1758 7.63516 10.6502 7.61806 12.8654C7.59241 16.278 7.63231 16.6834 8.05554 17.4582C8.47164 18.2186 9.33376 18.7764 10.2728 18.8914C10.555 18.9259 11.1278 18.8727 11.4584 18.7792C12.2066 18.5694 12.9248 17.9728 13.2425 17.2957C13.3824 17.0246 13.4736 16.7307 13.5119 16.4275C13.6045 15.92 13.6116 15.0978 13.6116 13.0048C13.6116 10.3354 13.6031 10.0435 13.5147 9.66117L13.5133 9.66261ZM11.1179 16.6187C10.9013 16.7615 10.6375 16.8121 10.384 16.7595C10.1916 16.7179 9.93084 16.4131 9.85104 16.1357C9.75129 15.7892 9.74416 10.9693 9.82966 10.0249C9.97216 9.55192 10.3683 9.30467 10.8015 9.42255C11.1392 9.51455 11.3117 9.7273 11.41 10.1744C11.4827 10.5064 11.4912 10.919 11.4755 13.3469C11.4656 14.9569 11.4599 15.7447 11.4071 16.1673C11.3544 16.4332 11.2661 16.5051 11.1179 16.6201V16.6187ZM51.2202 12.0848H52.2348L52.2191 11.1576C52.2035 10.3066 52.1906 10.2103 52.0781 9.97886C51.8999 9.61517 51.6377 9.45274 51.2216 9.45274C50.7215 9.45274 50.4051 9.69711 50.2555 10.1974C50.1914 10.4101 50.1244 11.8749 50.1728 12.0014C50.1999 12.0719 50.3453 12.0848 51.2202 12.0848ZM44.4372 9.97599C44.3768 9.84818 44.2797 9.74169 44.1585 9.67041C44.0372 9.59912 43.8975 9.56635 43.7575 9.57636C43.4923 9.5968 43.2397 9.69863 43.0336 9.86817L42.8526 10.0076V16.669L43.0336 16.8084C43.444 17.1247 43.8943 17.1908 44.2049 16.9809C44.3336 16.8893 44.4272 16.7558 44.47 16.6029C44.5512 16.3671 44.5583 16.0638 44.5484 13.2607C44.537 10.3397 44.5313 10.1672 44.4372 9.97599Z" fill="white"/>
<path d="M57.02 6.9745C56.8176 4.52931 56.6566 3.73581 56.1578 2.71662C55.4952 1.36681 54.539 0.655247 53.1767 0.498559C52.1237 0.377809 48.1593 0.206747 44.4928 0.124809C38.143 -0.0175033 27.7034 0.257059 26.3696 0.600622C25.7744 0.747996 25.2334 1.06425 24.8107 1.512C23.9685 2.35725 23.4655 3.5705 23.2646 5.2495C22.8043 9.08187 22.7943 13.7106 23.2375 17.6824C23.4284 19.3902 23.8217 20.4999 24.5599 21.4142C25.0202 21.9849 25.8153 22.4693 26.525 22.6145C27.0237 22.7166 29.5175 22.8574 33.1512 22.9882C33.6927 23.0084 35.1248 23.0414 36.3361 23.063C38.8583 23.1076 43.4967 23.0817 46.1486 23.0069C47.9327 22.9566 51.1846 22.8229 51.7931 22.7755C51.9641 22.7626 52.3602 22.7367 52.6737 22.7194C53.7268 22.6591 54.3965 22.4377 55.025 21.9389C55.8386 21.2934 56.4685 20.1017 56.735 18.7031C56.9872 17.3806 57.1553 15.0245 57.1895 12.3493C57.218 10.114 57.1796 8.90937 57.02 6.97162V6.9745ZM31.7348 6.089L30.5549 6.10337L30.5036 18.7965L29.4804 18.8094C28.6895 18.8209 28.4487 18.808 28.4302 18.7577C28.4159 18.7217 28.4003 15.8597 28.3931 12.3982L28.3803 6.10337L26.0761 6.07462V4.09087L32.8862 4.11818L32.9147 6.07318L31.7348 6.08756V6.089ZM38.9695 13.3642V18.8224H37.1056V18.2474C37.1056 17.8147 37.0899 17.6724 37.0386 17.6724C37.0016 17.6724 36.8334 17.8147 36.6638 17.9886C36.2948 18.3667 35.8587 18.67 35.4854 18.8109C34.713 19.1027 33.9806 18.9316 33.6685 18.3897C33.3821 17.8937 33.3778 17.7816 33.3778 12.6325V7.90312H35.2403L35.2545 12.3565C35.2688 16.7322 35.2702 16.8127 35.3742 16.991C35.5124 17.2267 35.7219 17.2914 36.0554 17.198C36.252 17.1434 36.386 17.0471 36.7037 16.7279L37.1056 16.3254V7.90312H38.9695V13.3613V13.3642ZM46.2398 18.0432C46.076 18.4127 45.7097 18.7735 45.4091 18.8626C44.6267 19.0955 43.9983 18.9057 43.273 18.2172C43.0478 18.003 42.8384 17.8305 42.807 17.8305C42.7685 17.8305 42.7486 17.9972 42.7486 18.3264V18.8224H40.8847V4.09087H42.7486V6.49437C42.7486 7.81543 42.7657 8.89787 42.7871 8.89787C42.8084 8.89787 43.0051 8.7225 43.2245 8.50975C43.729 8.01956 44.1494 7.80393 44.6837 7.76368C45.6371 7.69037 46.2056 8.18631 46.465 9.31618C46.5462 9.66837 46.5533 10.0709 46.5533 13.3383C46.5533 17.3173 46.5548 17.3346 46.2398 18.0432ZM54.1272 15.8582C54.1176 16.2089 54.0809 16.5584 54.0175 16.9033C53.7581 17.8722 53.0684 18.5593 52.0709 18.8411C50.7286 19.2206 49.2494 18.5996 48.6595 17.4079C48.3289 16.7394 48.3161 16.6057 48.3161 13.3383C48.3161 10.6746 48.326 10.3469 48.4101 9.98318C48.6495 8.95537 49.2423 8.28981 50.2469 7.92037C50.5376 7.814 50.8412 7.75793 51.1447 7.75218C52.2291 7.72918 53.3036 8.31712 53.7553 9.2745C54.0588 9.91993 54.0973 10.1974 54.1272 12.0172L54.1543 13.6502L50.18 13.6776L50.1657 14.7744C50.1443 16.3226 50.2484 16.7984 50.663 17.0787C51.0107 17.3159 51.5465 17.2972 51.8372 17.0399C52.1108 16.7984 52.1878 16.5382 52.2149 15.7792L52.2391 15.1136H54.1586L54.1272 15.8582Z" fill="white"/>
</g>
<defs>
<clipPath id="clip0_1_336">
<rect width="57" height="23" fill="white" transform="translate(0 0.0874023)"/>
</clipPath>
</defs>
</svg>
