<svg width="24" height="19" viewBox="0 0 24 19" fill="none" xmlns="http://www.w3.org/2000/svg">
<g clip-path="url(#clip0_30_1052)">
<path d="M7.2321 3.9984C6.87234 2.79229 5.89579 2.92448 5.2281 3.48624C3.58335 4.9897 1.44175 8.14539 2.81239 12.6894C3.96028 16.5389 8.73667 19.0007 8.73667 19.0007H3.16867C3.16867 19.0007 0.293675 15.812 0.0366688 12.0616C-0.288843 7.31986 1.63018 4.32937 3.85745 2.37986C5.94764 0.545931 7.93506 0.000732422 7.93506 0.000732422L12.0005 13.182L16.0659 0.000732422C16.0659 0.000732422 18.0533 0.545933 20.1435 2.37986C22.3707 4.32937 24.2898 7.31986 23.9642 12.0616C23.7072 15.812 20.8322 19.0007 20.8322 19.0007H15.2642C15.2642 19.0007 20.0402 16.5389 21.1885 12.6894C22.5592 8.1459 20.4176 4.99022 18.7728 3.48624C18.1046 2.92448 17.1281 2.79229 16.7688 3.9984C15.5352 7.84797 12.001 18.8778 12.001 18.8778C12.001 18.8778 8.46668 7.84429 7.23311 3.9984H7.2321Z" fill="#204982"/>
</g>
<defs>
<clipPath id="clip0_30_1052">
<rect width="24" height="19" fill="white"/>
</clipPath>
</defs>
</svg>
