<svg width="146" height="146" viewBox="0 0 146 146" fill="none" xmlns="http://www.w3.org/2000/svg">
<g opacity="0.5">
<rect x="0.442424" y="0.442424" width="145.115" height="145.115" rx="72.5576" stroke="#216572" stroke-width="0.884849"/>
</g>
<path d="M34.0587 118.332C33.8364 118.332 33.6485 118.317 33.4951 118.286C33.3417 118.263 33.2114 118.229 33.104 118.183L33.4031 116.71C33.4721 116.733 33.5449 116.756 33.6216 116.779C33.6983 116.795 33.8133 116.802 33.9667 116.802C34.1278 116.802 34.2696 116.776 34.3923 116.722C34.5227 116.668 34.6224 116.58 34.6914 116.457L34.7949 116.239L32.2528 110.694H34.0472L34.9215 112.88L35.5541 114.674H35.6001L36.1868 112.88L36.9805 110.694H38.683L36.3709 116.492C36.1408 117.059 35.8417 117.508 35.4736 117.838C35.1132 118.167 34.6416 118.332 34.0587 118.332ZM42.5926 118.332C41.9484 118.332 41.3579 118.191 40.8211 117.907C40.2919 117.615 39.8663 117.182 39.5443 116.607C39.2222 116.032 39.0611 115.326 39.0611 114.49C39.0611 113.869 39.1531 113.317 39.3372 112.834C39.5289 112.343 39.7896 111.929 40.1194 111.592C40.4492 111.254 40.8249 110.997 41.2467 110.821C41.6761 110.645 42.1286 110.556 42.6041 110.556C43.0872 110.556 43.5205 110.652 43.9039 110.844C44.2873 111.036 44.6056 111.266 44.8587 111.534L43.9614 112.558C43.7774 112.381 43.578 112.251 43.3633 112.167C43.1485 112.075 42.907 112.029 42.6386 112.029C42.3088 112.029 42.0021 112.128 41.7183 112.328C41.4423 112.52 41.2199 112.796 41.0511 113.156C40.8824 113.516 40.7981 113.942 40.7981 114.433C40.7981 114.947 40.8786 115.388 41.0396 115.756C41.2007 116.116 41.4231 116.392 41.7068 116.584C41.9982 116.776 42.3318 116.871 42.7076 116.871C42.999 116.871 43.2597 116.81 43.4898 116.687C43.7199 116.565 43.9231 116.419 44.0995 116.25L44.9507 117.251C44.6286 117.612 44.272 117.884 43.8809 118.068C43.4898 118.244 43.0603 118.332 42.5926 118.332ZM46.1128 118.194V110.694H47.8038V113.432H48.5515C49.1113 113.432 49.6136 113.509 50.0584 113.662C50.5032 113.816 50.8521 114.065 51.1052 114.41C51.3582 114.747 51.4848 115.192 51.4848 115.744C51.4848 116.342 51.3506 116.822 51.0822 117.182C50.8214 117.542 50.4648 117.803 50.0124 117.964C49.5676 118.118 49.0691 118.194 48.517 118.194H46.1128ZM47.8038 116.848H48.4134C48.8582 116.848 49.2033 116.764 49.4487 116.595C49.7018 116.427 49.8283 116.151 49.8283 115.767C49.8283 115.43 49.7095 115.181 49.4717 115.019C49.2417 114.858 48.8889 114.778 48.4134 114.778H47.8038V116.848ZM52.4625 118.194V110.694H54.1535V118.194H52.4625ZM55.9196 118.194V110.694H61.7747V118.194H60.0837V112.121H57.6106V118.194H55.9196ZM62.5924 118.194L64.939 110.694H66.9635L69.3216 118.194H67.5272L66.5494 114.398C66.4421 114.023 66.3385 113.624 66.2388 113.202C66.1391 112.78 66.0394 112.374 65.9398 111.983H65.8937C65.8094 112.374 65.7174 112.78 65.6177 113.202C65.518 113.624 65.4144 114.023 65.3071 114.398L64.3178 118.194H62.5924ZM64.1338 116.411V115.089H67.7457V116.411H64.1338ZM70.2056 118.321C70.0062 118.321 69.8413 118.309 69.711 118.286C69.5806 118.271 69.454 118.248 69.3314 118.217L69.6304 116.687C69.6841 116.695 69.734 116.707 69.78 116.722C69.8336 116.73 69.8912 116.733 69.9525 116.733C70.0829 116.733 70.2017 116.699 70.3091 116.63C70.4165 116.553 70.52 116.388 70.6197 116.135C70.7271 115.882 70.8421 115.487 70.9648 114.95C71.1258 114.253 71.2677 113.551 71.3904 112.845C71.5208 112.132 71.6473 111.415 71.77 110.694H76.1296V118.194H74.4272V112.121H73.0698C72.9931 112.65 72.9088 113.16 72.8168 113.651C72.7247 114.141 72.6251 114.636 72.5177 115.135C72.349 115.97 72.1611 116.618 71.954 117.079C71.7547 117.539 71.5131 117.861 71.2294 118.045C70.9456 118.229 70.6044 118.321 70.2056 118.321ZM77.8922 118.194V110.694H79.5832V113.432H80.5494C81.1169 113.432 81.6192 113.509 82.0563 113.662C82.5011 113.816 82.85 114.065 83.1031 114.41C83.3562 114.747 83.4827 115.192 83.4827 115.744C83.4827 116.342 83.3523 116.822 83.0916 117.182C82.8308 117.542 82.4743 117.803 82.0218 117.964C81.577 118.118 81.0786 118.194 80.5264 118.194H77.8922ZM79.5832 116.848H80.4229C80.8677 116.848 81.2128 116.764 81.4582 116.595C81.7035 116.427 81.8262 116.151 81.8262 115.767C81.8262 115.43 81.7112 115.181 81.4812 115.019C81.2511 114.858 80.8945 114.778 80.4114 114.778H79.5832V116.848ZM84.7895 118.194V110.694H86.4805V113.582H89.0687V110.694H90.7711V118.194H89.0687V115.066H86.4805V118.194H84.7895ZM92.5406 118.194V110.694H94.22V113.34C94.22 113.785 94.1932 114.253 94.1395 114.743C94.0858 115.234 94.036 115.679 93.99 116.078H94.036L94.7722 114.433L96.7277 110.694H98.5452V118.194H96.8657V115.537C96.8657 115.092 96.8926 114.632 96.9463 114.157C97.0076 113.674 97.0575 113.225 97.0958 112.811H97.0498L96.3136 114.456L94.3581 118.194H92.5406ZM105.34 120.357V118.194H100.337V110.694H102.028V116.768H104.397V110.694H106.088V116.768H107.008V117.826L106.859 120.357H105.34ZM107.975 118.194V110.694H112.669V112.121H109.666V113.628H112.22V115.043H109.666V116.768H112.784V118.194H107.975Z" fill="#216572"/>
<path opacity="0.5" d="M38.5684 76.0212L41.4494 74.379V72.6504M38.5684 76.0212L46.9329 75.0194M38.5684 76.0212V84.9197V94.9206C49.7652 98.2542 79.2132 102.921 107.431 94.9206L107.17 85.747V77.816M41.4494 72.6504L44.244 70.2015H44.993V70.6049L54.9037 69.2508M41.4494 72.6504L54.9037 71.3895M54.9037 69.2508V71.3895M54.9037 69.2508V66.2117M57.7847 58.4758C56.1944 58.6141 55.5279 60.2621 55.3934 61.0687V64.1226C54.9786 64.4453 54.8941 64.8333 54.9037 64.9869V66.2117M57.7847 58.4758C59.375 58.3375 59.9646 60.1468 60.0607 61.0687C60.2047 61.1072 60.5043 61.2358 60.5504 61.4433V63.0478M57.7847 58.4758V56.4569M60.5504 63.0478C60.9641 63.4674 61.7974 64.6025 61.8208 65.7854M60.5504 63.0478C57.2376 61.2568 55.8471 64.0347 55.5659 65.6474M61.8208 65.7854C61.9721 65.8537 62.2952 66.2422 62.3771 67.2494M61.8208 65.7854C59.0231 64.174 56.7763 64.8271 55.5659 65.6474M62.3771 67.2494L63.2409 66.5759M62.3771 67.2494L60.8018 69.8982V71.3895M63.2409 66.5759C63.075 66.1416 62.872 65.109 63.3873 64.4532M63.2409 66.5759L65.0284 64.9869L69.5307 68.4493M63.3873 64.4532V59.461C63.114 59.0462 62.8837 58.0117 64.1486 57.1919M63.3873 64.4532C64.5694 63.7486 67.8141 62.4102 71.3361 62.6935M64.1486 57.1919C64.517 55.7257 66.0344 52.5941 69.1565 51.797M64.1486 57.1919C65.491 55.9313 69.3408 53.9898 74.0001 56.3085M69.1565 51.797C70.5219 51.9446 73.4022 53.0536 74.0001 56.3085M69.1565 51.797V49.2296M74.0001 56.3085C74.3045 56.6555 74.919 57.5748 74.9411 58.4758C76.1036 58.7276 78.4617 59.8865 78.5945 62.5083M78.5945 62.5083C78.982 62.6928 79.7072 63.7373 78.9544 64.6118V65.1387C79.7201 65.4432 81.2627 66.3278 81.307 67.8777M78.5945 62.5083C75.7794 60.4933 72.5826 61.7922 71.3361 62.6935M81.307 67.8777V69.8982C82.2024 70.1067 84.0501 70.6372 84.2772 71.0913C85.0814 71.413 86.6954 72.2778 86.7181 73.1633V74.4405M81.307 67.8777C79.9574 67.4205 78.9364 67.6872 78.5945 67.8777C75.8385 66.1104 72.2081 67.5224 70.7374 68.4493M86.7181 74.4405L89.3752 73.773H90.7811L91.7678 73.3291L92.3844 73.921H92.8284V74.2664H93.3464V75.2283H95.6897V74.4405L96.5283 74.1184L97.219 73.5264H97.8356V75.2283H99.5129V74.4405L100.376 74.1184V73.5264L102.054 73.3291V74.9077H102.67L103.46 73.3291H104.224L104.594 75.2283V76.7083L107.431 77.547L107.17 77.816M86.7181 74.4405V76.2797M107.17 77.816L102.67 76.4928L95.6897 76.1603M53.2214 74.2664V72.6504L54.5658 72.4268M53.2214 74.2664V97.9272M53.2214 74.2664L46.9329 75.0194M60.8018 71.3895V98.7815M60.8018 71.3895L54.5658 72.4268M69.5307 68.4493V99.2808M69.5307 68.4493H70.7374M46.9329 75.0194V96.8957M54.9037 71.3895C54.6334 71.5454 54.5658 72.146 54.5658 72.4268M54.9037 66.2117C55.0663 66.0316 55.289 65.8351 55.5659 65.6474M71.3361 62.6935C71.1366 62.9877 70.7374 63.7832 70.7374 64.6118C70.7374 65.4403 70.7374 67.5153 70.7374 68.4493M86.7181 76.2797C87.5369 76.4144 89.2147 76.8563 89.3752 77.547L88.8087 78.4103V83.0404V85.4004V98.5138M86.7181 76.2797L89.6184 74.9077L92.8284 76.024L95.6897 76.1603M95.6897 76.1603V97.5527M57.7847 54.4379V56.4569M57.7847 56.4569L56.7738 56.0261M57.7847 56.4569L58.6599 56.721M69.1565 46.6621V49.2296M69.1565 49.2296L67.329 48.0849M69.1565 49.2296L70.7374 50.2025" stroke="#216572" stroke-width="0.884849"/>
<path d="M56.612 38.5332V32.4596H54.5529V31.0332H60.3734V32.4596H58.3144V38.5332H56.612ZM62.4746 38.6712C62.2522 38.6712 62.0644 38.6559 61.911 38.6252C61.7576 38.6022 61.6272 38.5677 61.5199 38.5217L61.819 37.0493C61.888 37.0723 61.9608 37.0953 62.0375 37.1183C62.1142 37.1337 62.2292 37.1413 62.3826 37.1413C62.5437 37.1413 62.6855 37.1145 62.8082 37.0608C62.9386 37.0071 63.0383 36.9189 63.1073 36.7962L63.2108 36.5777L60.6687 31.0332H62.4631L63.3374 33.2188L63.97 35.0133H64.016L64.6027 33.2188L65.3964 31.0332H67.0989L64.7867 36.8308C64.5567 37.3982 64.2576 37.8469 63.8895 38.1766C63.5291 38.5064 63.0575 38.6712 62.4746 38.6712ZM67.9235 38.5332V31.0332H70.5002C71.0523 31.0332 71.5508 31.1099 71.9955 31.2633C72.448 31.409 72.8084 31.6582 73.0768 32.011C73.3452 32.3637 73.4794 32.843 73.4794 33.4489C73.4794 34.0317 73.3452 34.511 73.0768 34.8867C72.8084 35.2625 72.4518 35.5424 72.0071 35.7265C71.5623 35.9028 71.0753 35.991 70.5462 35.991H69.6144V38.5332H67.9235ZM69.6144 34.6452H70.4426C70.9104 34.6452 71.2555 34.5417 71.4779 34.3346C71.708 34.1275 71.823 33.8323 71.823 33.4489C71.823 33.0501 71.7003 32.774 71.4549 32.6206C71.2095 32.4596 70.8567 32.3791 70.3966 32.3791H69.6144V34.6452ZM77.0787 38.5332V31.0332H82.9338V38.5332H81.2428V32.4596H78.7697V38.5332H77.0787ZM87.7545 38.6712C87.0797 38.6712 86.4854 38.514 85.9716 38.1996C85.4654 37.8852 85.0666 37.4366 84.7752 36.8538C84.4915 36.2709 84.3496 35.5693 84.3496 34.7487C84.3496 33.9358 84.4915 33.2418 84.7752 32.6667C85.0666 32.0915 85.4654 31.6544 85.9716 31.3553C86.4854 31.0486 87.0797 30.8952 87.7545 30.8952C88.4294 30.8952 89.0237 31.0486 89.5375 31.3553C90.0513 31.6544 90.4501 32.0915 90.7338 32.6667C91.0175 33.2418 91.1594 33.9358 91.1594 34.7487C91.1594 35.5693 91.0175 36.2709 90.7338 36.8538C90.4501 37.4366 90.0513 37.8852 89.5375 38.1996C89.0237 38.514 88.4294 38.6712 87.7545 38.6712ZM87.7545 37.2104C88.0996 37.2104 88.3949 37.1107 88.6403 36.9113C88.8933 36.7042 89.085 36.4166 89.2154 36.0485C89.3534 35.6805 89.4225 35.2472 89.4225 34.7487C89.4225 34.2502 89.3534 33.8246 89.2154 33.4719C89.085 33.1114 88.8933 32.8392 88.6403 32.6552C88.3949 32.4634 88.0996 32.3676 87.7545 32.3676C87.4171 32.3676 87.1219 32.4634 86.8688 32.6552C86.6157 32.8392 86.4202 33.1114 86.2821 33.4719C86.1518 33.8246 86.0866 34.2502 86.0866 34.7487C86.0866 35.2472 86.1518 35.6805 86.2821 36.0485C86.4202 36.4166 86.6157 36.7042 86.8688 36.9113C87.1219 37.1107 87.4171 37.2104 87.7545 37.2104Z" fill="#216572"/>
<rect x="9.29008" y="9.29106" width="127.418" height="127.418" rx="63.7091" stroke="#216572" stroke-width="0.884849"/>
</svg>
